# xmcd
#
# Track frame offsets: 
#        150
#        15337
#        36584
#        50683
#        66775
#        84545
#        107203
#        132499
#        154108
#        168219
#
# Disc length: 2446 seconds
#
# Revision: 0
# Processed by: cddbd v1.5.2PL0 Copyright (c) Steve Scherf et al.
# Submitted via: ExactAudioCopy v0.99pb5
#
DISCID=82098c0a
DTITLE=13-я зарплата - Соучастники преступления
DYEAR=2009
DGENRE=Blues
TTITLE0=Ниже нуля
TTITLE1=Хоккей на траве
TTITLE2=Соучастники преступлений
TTITLE3=Ночная трасса
TTITLE4=Просто
TTITLE5=Механизм машины
TTITLE6=Город, где встретились мы
TTITLE7=Русское регги
TTITLE8=Взгляд из темноты
TTITLE9=Откуда ты можешь знать что такое блюз
EXTD=
EXTT0=
EXTT1=
EXTT2=
EXTT3=
EXTT4=
EXTT5=
EXTT6=
EXTT7=
EXTT8=
EXTT9=
PLAYORDER=
